mtllib SM_Rock_04.mtl
g SM_Rock_04
#Vertices 82
#Indices 324
#Section 0 Offset 0 NumIndices 324 MaterialIndex 0 MI_Small_Rocks_01
v 0.020194 0.005347 0.029550
v 0.028409 0.009585 0.022223
v 0.031812 0.002430 0.016821
v 0.033261 0.012079 0.012458
v 0.035557 0.001568 0.007753
v 0.034074 0.012413 -0.010342
v 0.035174 0.005048 -0.010845
v 0.033383 -0.000081 -0.020954
v 0.032238 0.018075 -0.020341
v 0.035247 0.007229 -0.032036
v 0.030807 0.018265 -0.029071
v 0.026422 0.000721 -0.032428
v 0.011519 0.013181 -0.031506
v 0.008233 0.003093 -0.032400
v 0.004513 -0.000000 -0.030461
v -0.003062 0.004810 -0.032614
v 0.000584 0.013764 -0.026672
v -0.008770 0.016561 -0.030700
v -0.006889 0.000858 -0.026742
v -0.019290 0.016187 -0.031119
v -0.013663 0.003199 -0.031866
v -0.015613 0.001803 -0.025342
v -0.029789 -0.000262 -0.022673
v -0.020487 0.005288 -0.031811
v -0.025763 0.013849 -0.025343
v -0.033181 0.016280 -0.009090
v -0.035335 0.005197 -0.017540
v -0.030870 0.000426 -0.009856
v -0.034569 0.010679 -0.009213
v -0.030920 0.013440 0.001138
v -0.035472 0.004553 -0.004709
v -0.035202 0.013157 0.005459
v -0.034671 0.004762 0.009315
v -0.035557 0.002063 0.018680
v -0.034915 0.019292 0.018636
v -0.035205 0.006609 0.026604
v -0.035102 0.014631 0.027037
v -0.028291 -0.000019 0.026575
v -0.027727 0.007226 0.032614
v 0.026422 0.000721 -0.032428
v 0.004513 -0.000000 -0.030461
v 0.010112 0.000008 -0.017343
v 0.033383 -0.000081 -0.020954
v -0.006889 0.000858 -0.026742
v 0.009518 0.000797 -0.000277
v 0.035557 0.001568 0.007753
v -0.029789 -0.000262 -0.022673
v -0.030870 0.000426 -0.009856
v -0.035557 0.002063 0.018680
v 0.031812 0.002430 0.016821
v -0.028291 -0.000019 0.026575
v 0.008260 0.001375 0.032277
v 0.020194 0.005347 0.029550
v -0.027727 0.007226 0.032614
v 0.012552 0.019062 0.027372
v 0.028409 0.009585 0.022223
v -0.002509 0.015327 0.029263
v -0.018910 0.013102 0.031806
v -0.022617 0.019723 0.028515
v -0.035102 0.014631 0.027037
v -0.034915 0.019292 0.018636
v -0.018144 0.019583 0.021104
v -0.024258 0.019319 0.007302
v -0.035202 0.013157 0.005459
v -0.030920 0.013440 0.001138
v -0.033181 0.016280 -0.009090
v -0.001076 0.019286 0.022586
v -0.016772 0.018409 -0.024771
v -0.019290 0.016187 -0.031119
v -0.008770 0.016561 -0.030700
v 0.000584 0.013764 -0.026672
v 0.000634 0.018185 -0.025240
v 0.011519 0.013181 -0.031506
v 0.030807 0.018265 -0.029071
v -0.008135 0.017313 -0.004059
v 0.018762 0.019416 0.021726
v 0.021964 0.018303 -0.014079
v 0.032238 0.018075 -0.020341
v 0.034074 0.012413 -0.010342
v 0.033261 0.012079 0.012458
v 0.025316 0.017789 0.009831
v 0.027999 0.018660 -0.000995
vt 0.982910 0.001465
vt 0.965332 0.044922
vt 0.927246 0.042969
vt 0.942383 0.082520
vt 0.897461 0.068359
vt 0.884277 0.152832
vt 0.861328 0.133301
vt 0.816406 0.148438
vt 0.873535 0.203125
vt 0.813965 0.196289
vt 0.836914 0.232910
vt 0.775391 0.189453
vt 0.754883 0.270996
vt 0.721191 0.241699
vt 0.704102 0.235840
vt 0.684570 0.266113
vt 0.712891 0.301270
vt 0.671875 0.317383
vt 0.661621 0.239746
vt 0.626465 0.325195
vt 0.644531 0.270020
vt 0.628906 0.248535
vt 0.573242 0.257324
vt 0.622070 0.281738
vt 0.590820 0.314453
vt 0.517578 0.319824
vt 0.547363 0.276367
vt 0.521973 0.247559
vt 0.516113 0.296387
vt 0.473633 0.310059
vt 0.498291 0.270508
vt 0.452393 0.296387
vt 0.443359 0.259766
vt 0.407471 0.244629
vt 0.395752 0.312500
vt 0.375244 0.257324
vt 0.365479 0.287109
vt 0.369873 0.220703
vt 0.339844 0.245605
vt 0.440918 0.598145
vt 0.438965 0.510986
vt 0.493164 0.527100
vt 0.489258 0.620361
vt 0.448486 0.464355
vt 0.559570 0.516846
vt 0.603516 0.616211
vt 0.454102 0.372070
vt 0.504395 0.362305
vt 0.615723 0.330566
vt 0.639160 0.597900
vt 0.653320 0.355469
vt 0.682129 0.497559
vt 0.693848 0.547852
vt 0.698730 0.354004
vt 0.746582 0.512451
vt 0.736816 0.585449
vt 0.734375 0.454102
vt 0.723633 0.390137
vt 0.749512 0.375488
vt 0.743164 0.324707
vt 0.787109 0.328125
vt 0.774902 0.394531
vt 0.833008 0.374023
vt 0.845215 0.324707
vt 0.861328 0.341797
vt 0.903809 0.348145
vt 0.764160 0.459961
vt 0.955566 0.422363
vt 0.982910 0.413574
vt 0.980957 0.454102
vt 0.967773 0.493164
vt 0.949707 0.492676
vt 0.978516 0.538818
vt 0.952637 0.614746
vt 0.872070 0.443848
vt 0.759766 0.535645
vt 0.895508 0.576660
vt 0.916992 0.618896
vt 0.869629 0.625488
vt 0.779785 0.603027
vt 0.797363 0.569336
vt 0.839355 0.585205
vt1 0.812012 0.253418
vt1 0.783203 0.282227
vt1 0.753418 0.268066
vt1 0.751953 0.304688
vt1 0.721191 0.278320
vt1 0.682129 0.341309
vt1 0.670410 0.318359
vt1 0.629395 0.314941
vt1 0.656738 0.377930
vt1 0.611328 0.352539
vt1 0.617676 0.389160
vt1 0.583008 0.333984
vt1 0.539062 0.392090
vt1 0.522461 0.357422
vt1 0.510742 0.347168
vt1 0.484863 0.364746
vt1 0.496094 0.402344
vt1 0.457520 0.401367
vt1 0.475586 0.335938
vt1 0.418701 0.392578
vt1 0.451660 0.354492
vt1 0.446289 0.332031
vt1 0.398926 0.320312
vt1 0.429688 0.355957
vt1 0.393799 0.371582
vt1 0.333740 0.351562
vt1 0.371826 0.326660
vt1 0.361572 0.295410
vt1 0.340088 0.332520
vt1 0.301758 0.329102
vt1 0.334717 0.305664
vt1 0.289307 0.311035
vt1 0.294189 0.278809
vt1 0.270752 0.254883
vt1 0.238647 0.305176
vt1 0.240723 0.253906
vt1 0.223022 0.274414
vt1 0.248901 0.223145
vt1 0.216553 0.232910
vt1 0.304199 0.816895
vt1 0.302490 0.750122
vt1 0.343994 0.762451
vt1 0.341064 0.833862
vt1 0.309814 0.714355
vt1 0.395020 0.754639
vt1 0.428711 0.830688
vt1 0.314209 0.644043
vt1 0.352783 0.636230
vt1 0.437988 0.612305
vt1 0.455811 0.816650
vt1 0.466797 0.631104
vt1 0.488770 0.739746
vt1 0.497803 0.778442
vt1 0.500977 0.629883
vt1 0.538086 0.751343
vt1 0.530273 0.807129
vt1 0.528809 0.706543
vt1 0.520508 0.657715
vt1 0.540039 0.646484
vt1 0.535156 0.607422
vt1 0.568848 0.610352
vt1 0.559570 0.661133
vt1 0.604004 0.645508
vt1 0.613281 0.607666
vt1 0.625977 0.620605
vt1 0.658203 0.625732
vt1 0.551270 0.710938
vt1 0.697754 0.682373
vt1 0.718750 0.675537
vt1 0.717285 0.706543
vt1 0.707031 0.736572
vt1 0.693359 0.736328
vt1 0.715332 0.771362
vt1 0.695801 0.829590
vt1 0.633789 0.698975
vt1 0.547852 0.769043
vt1 0.651855 0.800415
vt1 0.667969 0.832764
vt1 0.632324 0.837646
vt1 0.563477 0.820679
vt1 0.576660 0.794922
vt1 0.608887 0.807007
vn 0.708661 -0.181102 0.685039
vn 0.787402 -0.094488 0.614173
vn 0.874016 0.000000 0.488189
vn 0.952756 0.110236 0.275591
vn 0.984252 0.102362 0.141732
vn 0.984252 0.157480 -0.047244
vn 1.000000 -0.023622 -0.031496
vn 0.905512 -0.409449 -0.125984
vn 0.960630 0.275591 -0.047244
vn 0.732283 -0.062992 -0.677165
vn 0.606299 0.425197 -0.677165
vn 0.204724 -0.251969 -0.944882
vn -0.047244 0.228346 -0.976378
vn -0.023622 -0.212599 -0.976378
vn -0.110236 -0.535433 -0.834646
vn -0.039370 -0.220473 -0.976378
vn 0.047244 0.543307 -0.842520
vn 0.181102 0.244094 -0.952756
vn -0.078740 -0.842520 -0.527559
vn -0.362205 0.196850 -0.913386
vn -0.125984 -0.614173 -0.779527
vn -0.165354 -0.629921 -0.755905
vn -0.677165 -0.346457 -0.645669
vn -0.346457 -0.354331 -0.874016
vn -0.708661 0.425197 -0.566929
vn -0.937008 0.354331 -0.047244
vn -0.929134 -0.141732 -0.338583
vn -0.708661 -0.700787 -0.023622
vn -0.968504 0.228346 0.078740
vn -0.811024 0.543307 -0.212598
vn -0.952756 -0.307087 0.031496
vn -0.976378 0.173228 -0.149606
vn -0.984252 -0.173228 -0.094488
vn -0.976378 -0.204724 0.094488
vn -1.000000 0.031496 0.007874
vn -0.850394 -0.259842 0.464567
vn -0.968504 0.000000 0.259842
vn -0.574803 -0.598425 0.559055
vn -0.574803 -0.338583 0.748031
vn 0.000000 -1.000000 -0.047244
vn -0.023622 -1.000000 0.007874
vn -0.023622 -1.000000 0.023622
vn 0.000000 -1.000000 0.000000
vn 0.000000 -1.000000 0.000000
vn 0.007874 -1.000000 0.031496
vn 0.007874 -1.000000 0.078740
vn 0.015748 -1.000000 0.023622
vn 0.000000 -1.000000 0.055118
vn -0.055118 -1.000000 -0.070866
vn 0.070866 -0.992126 0.110236
vn -0.078740 -0.968504 0.236221
vn 0.125984 -0.598425 0.795276
vn 0.425197 -0.212598 0.881890
vn -0.133858 -0.055118 0.992126
vn 0.157480 0.748031 0.637795
vn 0.566929 0.629921 0.535433
vn -0.007874 0.590551 0.811023
vn 0.118110 0.338583 0.937008
vn 0.118110 0.818898 0.559055
vn -0.346457 0.661417 0.669291
vn -0.244094 0.968504 0.031496
vn 0.070866 0.984252 0.157480
vn -0.173228 0.984252 -0.094488
vn -0.409449 0.834646 -0.370079
vn -0.677165 0.732283 0.031496
vn -0.338583 0.937008 -0.007874
vn -0.039370 0.976378 0.204724
vn -0.094488 0.976378 -0.181102
vn -0.157480 0.952756 -0.267717
vn 0.196850 0.976378 -0.039370
vn -0.173228 0.440945 -0.881890
vn -0.086614 0.834646 -0.535433
vn -0.133858 0.653543 -0.748031
vn -0.007874 0.992126 -0.133858
vn 0.070866 1.000000 0.031496
vn 0.362205 0.881890 0.299212
vn 0.141732 0.992126 0.039370
vn 0.133858 0.976378 0.188976
vn 0.385827 0.905512 0.173228
vn 0.527559 0.811024 0.259842
vn 0.559055 0.787401 0.244094
vn 0.708661 0.661417 -0.244095
tan -0.596379 -0.677227 0.437907 1.000000
tan -0.491041 -0.697129 0.522289 1.000000
tan -0.349805 -0.702089 0.626263 1.000000
tan -0.129332 -0.681443 0.719697 1.000000
tan -0.036084 -0.675553 0.738483 1.000000
tan 0.138260 -0.638787 0.751131 1.000000
tan 0.006014 -0.702027 0.717465 1.000000
tan -0.141856 -0.564945 0.816480 1.000000
tan 0.240250 -0.726641 0.646351 1.000000
tan 0.454957 -0.692975 0.556451 1.000000
tan 0.768430 -0.545539 0.345465 1.000000
tan 0.454833 -0.829685 0.319797 1.000000
tan 0.525389 -0.826586 -0.218736 1.000000
tan 0.463327 -0.871536 0.178560 1.000000
tan 0.414161 -0.789633 0.451857 1.000000
tan 0.209560 -0.956414 0.207515 1.000000
tan 0.402257 -0.781449 -0.481369 1.000000
tan 0.235786 -0.949098 -0.198338 1.000000
tan 0.273731 -0.528489 0.803150 1.000000
tan 0.002170 -0.976998 -0.211420 1.000000
tan 0.191952 -0.787897 0.589745 1.000000
tan 0.355137 -0.753673 0.550375 1.000000
tan 0.222828 -0.937690 0.269453 1.000000
tan 0.178002 -0.938868 0.310063 1.000000
tan -0.373861 -0.907310 -0.213156 1.000000
tan -0.355075 -0.939240 -0.001984 1.000000
tan 0.094364 -0.983260 0.152644 1.000000
tan 0.687519 -0.700663 0.160766 1.000000
tan -0.224068 -0.967698 0.050282 1.000000
tan -0.571393 -0.810589 0.108252 1.000000
tan 0.309815 -0.952756 0.082522 1.000000
tan -0.200756 -0.962118 0.196168 1.000000
tan 0.160084 -0.979912 0.128960 1.000000
tan 0.217868 -0.966954 0.156240 1.000000
tan -0.029574 -0.984314 0.181350 1.000000
tan 0.362453 -0.922500 0.147498 1.000000
tan 0.081840 -0.948044 0.305041 1.000000
tan 0.657325 -0.743629 -0.120156 1.000000
tan 0.483105 -0.874946 -0.024800 1.000000
tan -0.994358 -0.005208 0.110236 1.000000
tan -0.992188 0.024366 0.117924 1.000000
tan -0.992498 0.026226 0.117738 1.000000
tan -0.992126 0.000000 0.110236 1.000000
tan -0.992126 0.000000 0.118110 1.000000
tan -0.993118 -0.004340 0.110484 1.000000
tan -0.998326 0.000248 0.102982 1.000000
tan -0.992684 -0.012834 0.118482 1.000000
tan -0.995164 0.006076 0.110236 1.000000
tan -0.997148 0.046314 0.122016 1.000000
tan -0.997334 -0.059892 0.102114 1.000000
tan -0.990080 0.106020 0.104656 1.000000
tan -0.992126 0.007006 0.162440 1.000000
tan -0.909604 -0.083204 0.418501 1.000000
tan -0.995598 0.047492 -0.131688 1.000000
tan -0.978114 0.155434 0.059210 1.000000
tan -0.824106 0.467233 0.322897 1.000000
tan -1.006510 -0.011036 -0.001736 1.000000
tan -0.989956 -0.027342 0.134664 1.000000
tan -0.987538 0.074710 0.099200 1.000000
tan -0.937690 -0.285139 -0.203608 1.000000
tan -0.969248 -0.245334 0.032364 1.000000
tan -0.994792 0.062310 0.058218 1.000000
tan -0.986918 -0.164424 0.096596 1.000000
tan -0.908798 -0.400521 0.102176 1.000000
tan -0.718271 -0.670717 0.151342 1.000000
tan -0.922810 -0.331949 0.178932 1.000000
tan -0.995226 -0.049724 0.045756 1.000000
tan -0.987538 -0.077996 0.094736 1.000000
tan -0.991134 -0.140740 0.082150 1.000000
tan -0.978238 0.195920 -0.032364 1.000000
tan -0.989522 -0.056916 0.165912 1.000000
tan -0.987538 -0.017484 0.132494 1.000000
tan -0.987414 -0.039308 0.142352 1.000000
tan -1.002232 -0.001488 0.047926 1.000000
tan -0.985492 0.064790 0.160270 1.000000
tan -0.932110 0.354517 0.083452 1.000000
tan -0.986484 0.135966 0.124992 1.000000
tan -0.996714 0.124310 0.063736 1.000000
tan -0.910782 0.347449 0.212350 1.000000
tan -0.852254 0.488251 0.206398 1.000000
tan -0.822804 0.516709 0.217682 1.000000
tan -0.665571 0.745923 0.088908 1.000000
f 3/3/3 2/2/2 1/1/1
f 2/2/2 3/3/3 4/4/4
f 4/4/4 3/3/3 5/5/5
f 5/5/5 6/6/6 4/4/4
f 7/7/7 6/6/6 5/5/5
f 7/7/7 5/5/5 8/8/8
f 7/7/7 9/9/9 6/6/6
f 8/8/8 10/10/10 7/7/7
f 7/7/7 10/10/10 9/9/9
f 10/10/10 11/11/11 9/9/9
f 10/10/10 8/8/8 12/12/12
f 11/11/11 10/10/10 13/13/13
f 10/10/10 12/12/12 14/14/14
f 13/13/13 10/10/10 14/14/14
f 14/14/14 12/12/12 15/15/15
f 13/13/13 14/14/14 16/16/16
f 15/15/15 16/16/16 14/14/14
f 17/17/17 13/13/13 16/16/16
f 16/16/16 18/18/18 17/17/17
f 19/19/19 16/16/16 15/15/15
f 18/18/18 16/16/16 20/20/20
f 19/19/19 21/21/21 16/16/16
f 21/21/21 20/20/20 16/16/16
f 22/22/22 21/21/21 19/19/19
f 19/19/19 23/23/23 22/22/22
f 21/21/21 22/22/22 24/24/24
f 24/24/24 20/20/20 21/21/21
f 24/24/24 22/22/22 23/23/23
f 25/25/25 20/20/20 24/24/24
f 23/23/23 25/25/25 24/24/24
f 26/26/26 20/20/20 25/25/25
f 27/27/27 25/25/25 23/23/23
f 25/25/25 27/27/27 26/26/26
f 23/23/23 28/28/28 27/27/27
f 27/27/27 29/29/29 26/26/26
f 30/30/30 26/26/26 29/29/29
f 29/29/29 27/27/27 31/31/31
f 30/30/30 29/29/29 31/31/31
f 28/28/28 31/31/31 27/27/27
f 31/31/31 32/32/32 30/30/30
f 33/33/33 31/31/31 28/28/28
f 31/31/31 33/33/33 32/32/32
f 28/28/28 34/34/34 33/33/33
f 34/34/34 32/32/32 33/33/33
f 32/32/32 34/34/34 35/35/35
f 35/35/35 34/34/34 36/36/36
f 35/35/35 36/36/36 37/37/37
f 36/36/36 34/34/34 38/38/38
f 39/39/39 37/37/37 36/36/36
f 38/38/38 39/39/39 36/36/36
f 42/42/42 41/41/41 40/40/40
f 40/40/40 43/43/43 42/42/42
f 41/41/41 42/42/42 44/44/44
f 45/45/45 42/42/42 43/43/43
f 42/42/42 45/45/45 44/44/44
f 45/45/45 43/43/43 46/46/46
f 44/44/44 45/45/45 47/47/47
f 47/47/47 45/45/45 48/48/48
f 48/48/48 45/45/45 49/49/49
f 50/50/50 45/45/45 46/46/46
f 51/51/51 49/49/49 45/45/45
f 50/50/50 52/52/52 45/45/45
f 45/45/45 52/52/52 51/51/51
f 52/52/52 50/50/50 53/53/53
f 54/54/54 51/51/51 52/52/52
f 53/53/53 55/55/55 52/52/52
f 53/53/53 56/56/56 55/55/55
f 57/57/57 54/54/54 52/52/52
f 52/52/52 55/55/55 57/57/57
f 57/57/57 58/58/58 54/54/54
f 58/58/58 59/59/59 54/54/54
f 54/54/54 59/59/59 60/60/60
f 61/61/61 60/60/60 59/59/59
f 62/62/62 59/59/59 58/58/58
f 59/59/59 62/62/62 61/61/61
f 57/57/57 62/62/62 58/58/58
f 62/62/62 63/63/63 61/61/61
f 63/63/63 64/64/64 61/61/61
f 64/64/64 63/63/63 65/65/65
f 66/66/66 65/65/65 63/63/63
f 67/67/67 62/62/62 57/57/57
f 63/63/63 62/62/62 67/67/67
f 67/67/67 57/57/57 55/55/55
f 63/63/63 68/68/68 66/66/66
f 68/68/68 69/69/69 66/66/66
f 68/68/68 70/70/70 69/69/69
f 68/68/68 71/71/71 70/70/70
f 71/71/71 68/68/68 72/72/72
f 72/72/72 68/68/68 63/63/63
f 72/72/72 73/73/73 71/71/71
f 73/73/73 72/72/72 74/74/74
f 67/67/67 75/75/75 63/63/63
f 75/75/75 72/72/72 63/63/63
f 76/76/76 75/75/75 67/67/67
f 72/72/72 75/75/75 76/76/76
f 55/55/55 76/76/76 67/67/67
f 56/56/56 76/76/76 55/55/55
f 74/74/74 72/72/72 77/77/77
f 77/77/77 72/72/72 76/76/76
f 74/74/74 77/77/77 78/78/78
f 79/79/79 78/78/78 77/77/77
f 80/80/80 79/79/79 77/77/77
f 76/76/76 56/56/56 81/81/81
f 81/81/81 56/56/56 80/80/80
f 82/82/82 77/77/77 76/76/76
f 82/82/82 80/80/80 77/77/77
f 76/76/76 81/81/81 82/82/82
f 81/81/81 80/80/80 82/82/82
