mtllib SM_Rock_7.mtl
g SM_Rock_7
#Vertices 65
#Indices 246
#Section 0 Offset 0 NumIndices 246 MaterialIndex 0 MI_Small_Rocks_01
v 0.007024 -0.000177 -0.019872
v 0.000000 -0.000000 -0.024809
v -0.012601 0.000194 -0.015216
v -0.017595 0.000220 -0.009811
v -0.002949 -0.000407 0.012238
v 0.012599 -0.000056 -0.013523
v 0.023679 -0.000020 0.001878
v 0.020298 0.000212 -0.004521
v 0.012682 -0.000028 0.015228
v -0.007962 0.000223 0.015819
v 0.002326 0.000634 0.024012
v 0.002243 0.005364 0.023922
v -0.018775 -0.000009 0.008360
v -0.024273 0.000275 -0.000592
v -0.023779 0.003614 0.002371
v -0.009607 0.009714 0.016073
v -0.017116 0.005682 0.007595
v 0.002890 0.012209 0.024809
v -0.016782 0.016374 0.009752
v -0.023031 0.008064 -0.000221
v -0.023606 0.016377 0.002635
v -0.015213 0.011838 0.012467
v -0.008811 0.016203 0.015751
v -0.010109 0.016469 -0.014862
v -0.006512 0.010187 0.021281
v 0.011223 0.016522 0.019195
v -0.004114 0.016347 -0.020109
v 0.021497 0.015666 0.008103
v 0.017075 0.016301 -0.007906
v 0.002271 0.016052 -0.024512
v 0.025502 0.014024 0.002244
v -0.024273 0.000275 -0.000592
v -0.023031 0.008064 -0.000221
v -0.023779 0.003614 0.002371
v -0.021064 0.005210 -0.006506
v -0.017595 0.000220 -0.009811
v -0.023606 0.016377 0.002635
v -0.010109 0.016469 -0.014862
v -0.016347 0.006839 -0.015360
v -0.012601 0.000194 -0.015216
v -0.005638 0.007298 -0.020327
v -0.004114 0.016347 -0.020109
v 0.000000 -0.000000 -0.024809
v 0.000728 0.006837 -0.023931
v 0.002271 0.016052 -0.024512
v 0.004246 0.004438 -0.023567
v 0.007024 -0.000177 -0.019872
v 0.012599 -0.000056 -0.013523
v 0.009946 0.010990 -0.018413
v 0.017075 0.016301 -0.007906
v 0.012017 0.007547 -0.011576
v 0.020298 0.000212 -0.004521
v 0.021238 0.012148 -0.007719
v 0.025503 0.007668 0.000716
v 0.025502 0.014024 0.002244
v 0.023679 -0.000020 0.001878
v 0.018504 0.004731 0.009799
v 0.021497 0.015666 0.008103
v 0.012682 -0.000028 0.015228
v 0.011834 0.010243 0.013412
v 0.011223 0.016522 0.019195
v 0.002326 0.000634 0.024012
v 0.002243 0.005364 0.023922
v 0.007863 0.009797 0.020558
v 0.002890 0.012209 0.024809
vt 0.975098 0.095215
vt 0.989746 0.096191
vt 0.996094 0.122559
vt 0.996582 0.134766
vt 0.953613 0.148438
vt 0.960449 0.097656
vt 0.929199 0.105957
vt 0.940918 0.101074
vt 0.929199 0.136230
vt 0.956055 0.158203
vt 0.933594 0.159668
vt 0.934082 0.169922
vt 0.977539 0.158203
vt 0.994629 0.154297
vt 0.991699 0.161621
vt 0.958008 0.174316
vt 0.977539 0.166992
vt 0.934570 0.185059
vt 0.976074 0.184570
vt 0.995605 0.169434
vt 0.993164 0.183594
vt 0.970215 0.177734
vt 0.959961 0.187012
vt 0.997070 0.222656
vt 0.949707 0.178711
vt 0.930176 0.203613
vt 0.994629 0.237305
vt 0.929199 0.229980
vt 0.953125 0.245117
vt 0.990723 0.250000
vt 0.930664 0.242188
vt 0.458252 0.629639
vt 0.460693 0.643066
vt 0.454590 0.636475
vt 0.470459 0.636230
vt 0.477539 0.626465
vt 0.457764 0.657959
vt 0.495361 0.654053
vt 0.487061 0.637207
vt 0.490967 0.625488
vt 0.506348 0.637451
vt 0.508789 0.652832
vt 0.517578 0.624268
vt 0.519043 0.636475
vt 0.521973 0.652344
vt 0.524902 0.631836
vt 0.532227 0.623291
vt 0.546387 0.621826
vt 0.538086 0.643066
vt 0.560547 0.652832
vt 0.548828 0.634766
vt 0.567383 0.622314
vt 0.563965 0.644043
vt 0.579102 0.635742
vt 0.582520 0.646240
vt 0.580566 0.622314
vt 0.597656 0.628418
vt 0.594727 0.647949
vt 0.610352 0.618408
vt 0.611328 0.635986
vt 0.620605 0.646484
vt 0.633301 0.616455
vt 0.634277 0.624512
vt 0.624512 0.633789
vt 0.636230 0.636230
vt1 0.242920 0.323730
vt1 0.247070 0.269043
vt1 0.344971 0.245605
vt1 0.390869 0.242676
vt1 0.441406 0.404785
vt1 0.252197 0.377441
vt1 0.283936 0.494629
vt1 0.265625 0.451660
vt1 0.395996 0.495605
vt1 0.478516 0.395020
vt1 0.484619 0.478516
vt1 0.521484 0.477539
vt1 0.478027 0.313965
vt1 0.463379 0.250000
vt1 0.490967 0.262207
vt1 0.537598 0.386719
vt1 0.510254 0.314941
vt1 0.579102 0.475586
vt1 0.577148 0.319336
vt1 0.520020 0.248047
vt1 0.573730 0.256836
vt1 0.550781 0.342285
vt1 0.585449 0.380371
vt1 0.718750 0.240723
vt1 0.554688 0.417480
vt1 0.648438 0.492188
vt1 0.772949 0.250977
vt1 0.745605 0.494141
vt1 0.803223 0.404785
vt1 0.821289 0.264160
vt1 0.791504 0.489746
vt1 0.211914 0.691650
vt1 0.219971 0.736572
vt1 0.199829 0.714355
vt1 0.253174 0.713867
vt1 0.276855 0.680664
vt1 0.210693 0.785889
vt1 0.336182 0.773193
vt1 0.308838 0.716553
vt1 0.321777 0.677490
vt1 0.374023 0.717285
vt1 0.381836 0.769043
vt1 0.411621 0.673340
vt1 0.416504 0.713867
vt1 0.425781 0.767578
vt1 0.435547 0.698486
vt1 0.459717 0.670166
vt1 0.507812 0.665771
vt1 0.479736 0.736084
vt1 0.554199 0.768799
vt1 0.515625 0.708740
vt1 0.577637 0.666992
vt1 0.566895 0.739990
vt1 0.617676 0.711670
vt1 0.627930 0.747559
vt1 0.621582 0.666992
vt1 0.679199 0.687256
vt1 0.668945 0.752441
vt1 0.721191 0.654297
vt1 0.724609 0.712402
vt1 0.756348 0.748047
vt1 0.798340 0.647461
vt1 0.802246 0.674072
vt1 0.769531 0.705322
vt1 0.808594 0.713379
vn -0.007874 -1.000000 -0.007874
vn -0.023622 -1.000000 -0.007874
vn -0.023622 -1.000000 -0.015748
vn -0.023622 -1.000000 -0.007874
vn -0.023622 -1.000000 0.070866
vn 0.023622 -1.000000 -0.007874
vn 0.031496 -1.000000 -0.007874
vn 0.196850 -0.968504 -0.141732
vn 0.007874 -1.000000 0.039370
vn -0.440945 -0.716535 0.543307
vn -0.409449 -0.724409 0.551181
vn -0.590551 -0.047244 0.803149
vn -0.527559 -0.598425 0.606299
vn -0.330709 -0.929134 0.173228
vn -0.826772 -0.031496 0.566929
vn -0.669291 -0.110236 0.740157
vn -0.653543 0.007874 0.755905
vn -0.354331 0.503937 0.787401
vn -0.511811 0.732283 0.448819
vn -0.889764 0.157480 0.425197
vn -0.574803 0.590551 0.566929
vn -0.708661 -0.055118 0.700787
vn -0.362205 0.787401 0.496063
vn 0.023622 1.000000 0.007874
vn -0.401575 -0.535433 0.740157
vn -0.031496 0.992126 0.086614
vn 0.015748 1.000000 -0.007874
vn 0.094488 0.992126 -0.023622
vn 0.031496 1.000000 0.023622
vn 0.023622 1.000000 -0.031496
vn 0.314961 0.944882 -0.047244
vn -0.937008 0.070866 -0.330709
vn -0.874016 0.228346 -0.433071
vn -0.984252 0.157480 -0.015748
vn -0.866142 0.133858 -0.488189
vn -0.779528 -0.275591 -0.559055
vn -0.779528 0.149606 -0.606299
vn -0.653543 0.299212 -0.692913
vn -0.724409 0.102362 -0.685039
vn -0.566929 -0.251969 -0.787401
vn -0.519685 0.086614 -0.850394
vn -0.590551 0.094488 -0.803149
vn -0.102362 -0.015748 -0.992126
vn -0.086614 0.125984 -0.984252
vn 0.086614 0.015748 -1.000000
vn 0.511811 0.039370 -0.858268
vn 0.700787 -0.133858 -0.700787
vn 0.771654 0.181102 -0.614173
vn 0.748031 -0.047244 -0.669291
vn 0.669291 0.503937 -0.543307
vn 0.740157 -0.244095 -0.622047
vn 0.748031 -0.000000 -0.661417
vn 0.850394 0.141732 -0.503937
vn 0.992126 -0.094488 -0.078740
vn 1.000000 -0.015748 0.070866
vn 0.960630 -0.228346 0.141732
vn 0.700787 -0.070866 0.708661
vn 0.700787 -0.173228 0.692913
vn 0.700787 0.031496 0.708661
vn 0.724409 -0.125984 0.677165
vn 0.716535 -0.346457 0.606299
vn 0.645669 0.023622 0.763779
vn 0.614173 -0.086614 0.779527
vn 0.700787 -0.133858 0.700787
vn 0.598425 -0.149606 0.787401
tan 0.629983 0.001178 -0.779589 1.000000
tan 0.637981 -0.008990 -0.772211 1.000000
tan 0.646041 -0.003224 -0.764337 1.000000
tan 0.637981 -0.008990 -0.772211 1.000000
tan 0.623721 -0.070494 -0.786843 1.000000
tan 0.629797 0.021018 -0.779899 1.000000
tan 0.621923 0.025730 -0.780023 1.000000
tan 0.608779 0.234918 -0.759749 1.000000
tan 0.599665 -0.026908 -0.803397 1.000000
tan 0.421601 -0.699423 -0.580259 1.000000
tan 0.433505 -0.687705 -0.581809 1.000000
tan -0.061008 -0.989150 -0.103044 1.000000
tan 0.348317 -0.804948 -0.491413 1.000000
tan 0.678653 -0.361957 -0.645793 1.000000
tan -0.059272 -0.987476 -0.141298 1.000000
tan -0.015376 -0.991072 -0.161510 1.000000
tan -0.064666 -0.998512 -0.045508 1.000000
tan -0.408953 -0.841962 0.354827 1.000000
tan -0.588505 -0.678157 0.435365 1.000000
tan -0.155992 -0.986484 0.038936 1.000000
tan -0.441193 -0.804761 0.390973 1.000000
tan -0.010602 -0.993304 -0.088846 1.000000
tan -0.566061 -0.605679 0.548081 1.000000
tan -0.740344 0.012152 0.677723 1.000000
tan -0.043772 -0.796206 -0.599727 1.000000
tan -0.604253 -0.087978 0.788021 1.000000
tan -0.677103 0.016430 0.732407 1.000000
tan -0.646909 0.079608 0.755905 1.000000
tan -0.662347 0.003162 0.749271 1.000000
tan -0.653791 0.039246 0.755719 1.000000
tan -0.615289 0.242173 0.741521 1.000000
tan -0.005394 -0.975200 -0.193688 1.000000
tan -0.138198 -0.965094 -0.229958 1.000000
tan -0.150412 -0.961746 -0.216690 1.000000
tan -0.044640 -0.982578 -0.190216 1.000000
tan 0.289479 -0.952632 0.065968 1.000000
tan -0.054560 -0.984810 -0.172856 1.000000
tan -0.145700 -0.950276 -0.272924 1.000000
tan -0.019406 -0.993738 -0.127968 1.000000
tan 0.186000 -0.967202 0.175584 1.000000
tan -0.018228 -0.993242 -0.090024 1.000000
tan -0.024180 -0.993800 -0.099138 1.000000
tan 0.040672 -0.994792 0.011594 1.000000
tan 0.021080 -0.991072 -0.128712 1.000000
tan 0.009238 -1.007502 -0.015066 1.000000
tan 0.074214 -0.998574 -0.001550 1.000000
tan -0.027590 -0.987724 0.161076 1.000000
tan 0.176452 -0.984810 -0.068696 1.000000
tan -0.003348 -1.001612 0.066960 1.000000
tan 0.413913 -0.860686 -0.288424 1.000000
tan -0.160022 -0.961126 0.186744 1.000000
tan -0.010416 -0.997024 -0.011780 1.000000
tan 0.113708 -0.987786 -0.085932 1.000000
tan -0.087544 -0.991134 0.086304 1.000000
tan -0.025110 -0.997148 0.132742 1.000000
tan -0.235476 -0.970922 0.031744 1.000000
tan -0.144522 -0.987724 0.044144 1.000000
tan -0.207328 -0.982330 -0.035898 1.000000
tan -0.073036 -0.987786 0.116126 1.000000
tan -0.172236 -0.983694 0.001240 1.000000
tan -0.339637 -0.931800 -0.131068 1.000000
tan -0.087172 -0.989150 0.104284 1.000000
tan -0.164362 -0.983570 0.020212 1.000000
tan -0.189720 -0.982206 0.002108 1.000000
tan -0.209684 -0.975138 -0.025916 1.000000
f 3/3/3 2/2/2 1/1/1
f 4/4/4 3/3/3 1/1/1
f 5/5/5 4/4/4 1/1/1
f 1/1/1 6/6/6 5/5/5
f 6/6/6 8/8/8 7/7/7
f 6/6/6 7/7/7 5/5/5
f 9/9/9 5/5/5 7/7/7
f 10/10/10 5/5/5 9/9/9
f 10/10/10 4/4/4 5/5/5
f 9/9/9 11/11/11 10/10/10
f 10/10/10 11/11/11 12/12/12
f 13/13/13 4/4/4 10/10/10
f 4/4/4 13/13/13 14/14/14
f 15/15/15 14/14/14 13/13/13
f 12/12/12 16/16/16 10/10/10
f 13/13/13 10/10/10 17/17/17
f 17/17/17 15/15/15 13/13/13
f 16/16/16 17/17/17 10/10/10
f 18/18/18 16/16/16 12/12/12
f 19/19/19 15/15/15 17/17/17
f 19/19/19 20/20/20 15/15/15
f 19/19/19 21/21/21 20/20/20
f 22/22/22 19/19/19 17/17/17
f 22/22/22 17/17/17 16/16/16
f 19/19/19 23/23/23 21/21/21
f 23/23/23 19/19/19 22/22/22
f 23/23/23 22/22/22 16/16/16
f 24/24/24 21/21/21 23/23/23
f 16/16/16 18/18/18 25/25/25
f 23/23/23 16/16/16 25/25/25
f 18/18/18 23/23/23 25/25/25
f 23/23/23 18/18/18 26/26/26
f 24/24/24 23/23/23 27/27/27
f 23/23/23 26/26/26 28/28/28
f 27/27/27 23/23/23 28/28/28
f 28/28/28 29/29/29 27/27/27
f 30/30/30 27/27/27 29/29/29
f 29/29/29 28/28/28 31/31/31
f 34/34/34 33/33/33 32/32/32
f 33/33/33 35/35/35 32/32/32
f 32/32/32 35/35/35 36/36/36
f 38/38/38 33/33/33 37/37/37
f 33/33/33 38/38/38 35/35/35
f 39/39/39 36/36/36 35/35/35
f 39/39/39 35/35/35 38/38/38
f 40/40/40 36/36/36 39/39/39
f 38/38/38 41/41/41 39/39/39
f 41/41/41 40/40/40 39/39/39
f 41/41/41 38/38/38 42/42/42
f 40/40/40 41/41/41 43/43/43
f 42/42/42 44/44/44 41/41/41
f 41/41/41 44/44/44 43/43/43
f 42/42/42 45/45/45 44/44/44
f 43/43/43 44/44/44 46/46/46
f 47/47/47 43/43/43 46/46/46
f 46/46/46 48/48/48 47/47/47
f 49/49/49 44/44/44 45/45/45
f 49/49/49 46/46/46 44/44/44
f 49/49/49 45/45/45 50/50/50
f 51/51/51 48/48/48 46/46/46
f 46/46/46 49/49/49 51/51/51
f 52/52/52 48/48/48 51/51/51
f 49/49/49 50/50/50 53/53/53
f 49/49/49 53/53/53 51/51/51
f 53/53/53 50/50/50 54/54/54
f 53/53/53 54/54/54 51/51/51
f 51/51/51 54/54/54 52/52/52
f 50/50/50 55/55/55 54/54/54
f 56/56/56 52/52/52 54/54/54
f 57/57/57 54/54/54 55/55/55
f 57/57/57 56/56/56 54/54/54
f 58/58/58 57/57/57 55/55/55
f 59/59/59 56/56/56 57/57/57
f 58/58/58 60/60/60 57/57/57
f 59/59/59 57/57/57 60/60/60
f 60/60/60 58/58/58 61/61/61
f 63/63/63 62/62/62 59/59/59
f 64/64/64 60/60/60 61/61/61
f 60/60/60 64/64/64 59/59/59
f 63/63/63 59/59/59 64/64/64
f 65/65/65 64/64/64 61/61/61
f 64/64/64 65/65/65 63/63/63
